
<global>
amp_veltrack=0
</global>

<group>
amp_veltrack=0
ampeg_decay=20
ampeg_release=0.35
ampeg_sustain=0
group_label=Group_0-45
lpc_hicc1=42
lpc_locc1=0

<region>
hikey=a#4
hivel=127
lokey=a4
lovel=1
lpc=TLT5QQvmm8KePXVC3RyLQA8W78FA9CJBo20lQTdnO8GWgzxANUXrP8wkQMDhwwJANOUEQdvdZMHSjgZBBOeuvxCAs76C0cI/ei/nwPpQQUGMsOPAWk2MPiSejj9Gj7++
lpc_rms=-25.26
offset=419
pitch_keycenter=a#4
sample=Oboe_invertedturn_minor_PP_A#4.opus
tune=-8
</region>

<region>
hikey=a#5
hivel=127
lokey=a5
lovel=1
lpc=WKEhQtybtMIGFaRCctaMwdozwcGFipZBzlcaP56IHj8QRVDALPSaQFUyCsEXfixBQZSXP4tg78AsIpBA0nlCQDfeUMDrUR5A/HWOQOzr3sC/CRQ/pdZnQdHhfsFEG6BA
lpc_rms=-21.32
offset=353
pitch_keycenter=a#5
sample=Oboe_invertedturn_minor_PP_A#5.opus
tune=-10
</region>

<region>
hivel=127
key=c4
lovel=1
lpc=o1seQuVG+sK8WhpDn+qqwh+ge0GfimzAVZQ2QY60ycCx1DxAseSNwIyPe8C6XA5Bsw6uv9A9pj6h3FvAvs14wDT/9kDPNWdAj34CwUKolMDdTzNBo1cKwHR9jsDH6RRA
lpc_rms=-25.41
offset=1476
sample=Oboe_invertedturn_minor_PP_C4.opus
tune=-7
</region>

<region>
hikey=c5
hivel=127
lokey=b4
lovel=1
lpc=eGazQe87W8LPISBCgZUIQRwpwMGbU7dAd0PTQK2k7D79tfrAJwG9QC9brMCeUNdArZwVP8LxL8HIcDxBnSN8wOJJS8DkBgVB2ZzBwGDXosC3gw1BHfJ3v983RcC094A/
lpc_rms=-27.82
offset=465
pitch_keycenter=c5
sample=Oboe_invertedturn_minor_PP_C5.opus
tune=+2
</region>

<region>
hikey=c6
hivel=127
lokey=b5
lovel=1
lpc=WULuQTlCbsIFajBCKxxQQER+zMEha2pB5d4UQUMdO8EyRDK/UFmUQS9Ti8HOZopAEFE+QR2MDcFADS5AfWokwNnzPkES08jAEcmPwJVbM0HogBbApHqewAVaEr9RmK1A
lpc_rms=-25.64
offset=634
pitch_keycenter=c6
sample=Oboe_invertedturn_minor_PP_C6.opus
tune=-16
</region>

<region>
hikey=d4
hivel=127
lokey=c#4
lovel=1
lpc=tqwCQryMuMJXjcFCpX0twkElJ0Ca7mJBIByBwYGC7UBSPwS/WJ3iv6O27D8PnRzANNUGQHQA2j66pII+jDGpPpHLcMB6tEpAjS8Cv3X4zr8KfSxABvh3Pi8rO8CFCMw/
lpc_rms=-25.31
offset=2115
pitch_keycenter=d4
sample=Oboe_invertedturn_minor_PP_D4.opus
tune=+1
</region>

<region>
hikey=d5
hivel=127
lokey=c#5
lovel=1
lpc=+or5QZ7OtMIPidFCgGpUwjD2h0Bqww5ADYv/QAGtFcGa3nRA/LmCP7wTPEDmfDrBJ3BSQTFsncC2sES9zVNBv6fpRsDVbzpBPyc8wQhe0UCGETjBqO23QWXPqsFXYgVB
lpc_rms=-25.39
offset=731
pitch_keycenter=d5
sample=Oboe_invertedturn_minor_PP_D5.opus
tune=-14
</region>

<region>
hikey=d6
hivel=127
lokey=c#6
lovel=1
lpc=9NQ4QrGoucLL17JCoc0DwpIj5MD59odBiCM+wBpUJ0GuhRjB/rXCQC+PVkGmOi7BHIlSQSDABMFVjGVBjRYdP0zvfMDMdgFBrYO1vz3BhkDOx6bBF+ssQuGKC8I9jYBB
lpc_rms=-21.54
offset=1442
pitch_keycenter=d6
sample=Oboe_invertedturn_minor_PP_D6.opus
tune=-38
</region>

<region>
hikey=e4
hivel=127
lokey=d#4
lovel=1
lpc=UpFNQkG6F8M4WyJDPOB2wuhoBcFsAC5BdMPYv5kujUBFCBDBeBmaQOtn8L/+UO2/f7ZDQcKnlsB9LBXB3WXRv7G6VUFBUna/AKhkwZDcHUE9FKBA9ETpwPKYtT7cop8/
lpc_rms=-21.85
offset=2038
pitch_keycenter=e4
sample=Oboe_invertedturn_minor_PP_E4.opus
tune=-6
</region>

<region>
hikey=e5
hivel=127
lokey=d#5
lovel=1
lpc=OxRxQlGRIcNbvilDEX6IwnuhicE52glCIjS6wQ7Az0Euh6PB74BdwNHUckEFLzLB+GtfQSy2N8HFUcBAKYnFwKkPxUARe5A/mlWxwIMspUAlJ+fAAom3Qauh9sFYw39B
lpc_rms=-19.53
offset=570
pitch_keycenter=e5
sample=Oboe_invertedturn_minor_PP_E5.opus
tune=-8
</region>

<region>
hikey=G#6
hivel=127
lokey=d#6
lovel=1
lpc=rIY2QzqemMO3zIBDpKSPwpBNFcJ3LLdCQolNws9lgULG/9G+1aWSQWBOGkGxCANCfDosQWHldkEIGI9B7BaxQVHmTUGNE71BOZYPwh3FG8LBnjdDn8oiwwy0tUI0oH6/
lpc_rms=-16.70
offset=457
pitch_keycenter=E6
sample=Oboe_invertedturn_minor_PP_E6.opus
tune=+50
</region>

<region>
hikey=f#4
hivel=127
lokey=f4
lovel=1
lpc=V3nVQfZrmcJ+t6ZC0dT9wb3ZeMHcaLVBSef+wEgQdD6yGwpAvCMlwVr8i0ECUIzBJJ5VQbiD4sA/RZw/sM+DQJeyucBYKOU/LSPcPzhlML8z1wi+GHXmvx0aDkBRGQW/
lpc_rms=-25.83
offset=918
pitch_keycenter=f#4
sample=Oboe_invertedturn_minor_PP_F#4.opus
tune=+5
</region>

<region>
hikey=f#5
hivel=127
lokey=f5
lovel=1
lpc=+Sn/QSs5mMLOR5VC/nv4wclVBUAN7ABBNmB1wYkcqEGEVzfBBjWzwEtSeUGBOg7BOiIwv8839UABqtjAAilCQJLrIr8m3ShAq8I2P/CIi8CMnqBA0eEAvqp5hMCxPZ9A
lpc_rms=-25.51
offset=1104
pitch_keycenter=f#5
sample=Oboe_invertedturn_minor_PP_F#5.opus
tune=-13
</region>

<region>
hikey=g#4
hivel=127
lokey=g4
lovel=1
lpc=0CLhQd3ancLi4J5CbICBwYwvAMIPkvhBXQD7wL5XDsFx6EJBjDfXwKRrncAXf4BBk5ZzwXCOc0BTxwNButoqwSh6v0AYjajAtmTVQI/w37/uDJ7AipCRQBys+r2hNGq/
lpc_rms=-23.37
offset=813
pitch_keycenter=g#4
sample=Oboe_invertedturn_minor_PP_G#4.opus
tune=+5
</region>

<region>
hikey=g#5
hivel=127
lokey=g5
lovel=1
lpc=Hlw5Ql+1rcKz3GpCgxBiwNd4f8GKEqBBRTGSwUwdn0FhGdO/tRVYwRc1OEDd+WJBsnkHwZeigUAX1C9AseImwKKFxUB2SEPBXtQ9QWRQMr9+8wY+POsbQQMoXcG9sPlA
lpc_rms=-22.70
offset=539
pitch_keycenter=g#5
sample=Oboe_invertedturn_minor_PP_G#5.opus
tune=-5
</region>
</group>

<group>
amp_veltrack=0
ampeg_decay=20
ampeg_release=0.35
ampeg_sustain=0
group_label=Group_46-90
lpc_hicc1=84
lpc_locc1=43

<region>
hikey=a#4
hivel=127
lokey=a4
lovel=1
lpc=sgLzQac8psLol6lCZwPewcOlc8HiPYpB2WxHwD25VcAxvvg+rQcYQe+9hcGKw8hATKcWQQsPu8Cuoso/knQEwRx8rEBSdgRBLwJJwYOtpUBVUxM/vXoMvmj5Xj982oy/
lpc_rms=-21.29
offset=420
pitch_keycenter=a#4
sample=Oboe_invertedturn_minor_MF_A#4.opus
tune=+18
</region>

<region>
hikey=a#5
hivel=127
lokey=a5
lovel=1
lpc=w5U9QkghwcKRM6VCdvahwY7xj8E+PbZBw65TwYmgCEERU8k/Q6QewMzmaMDAcW9ABoErQfGxh8FBGmxBPcCbwAC3zz4NGpNAPGARwHUHhz9qesXAkfaBQf3PEsFv29W/
lpc_rms=-20.18
offset=260
pitch_keycenter=a#5
sample=Oboe_invertedturn_minor_MF_A#5.opus
tune=-1
</region>

<region>
hivel=127
key=c4
lovel=1
lpc=FFRQQhUFKsNlGmNDnf4Xw/L0KUILDwhB/PrRwC9StEDZ3l7BWfYQQW6mysCh6T1BEiEhwRaRPEBrUvlAlt6FwTtInUGpWpPBk+lBQTtAksBeROjAmLq7Qaajt8FjjAFB
lpc_rms=-17.73
offset=2034
sample=Oboe_invertedturn_minor_MF_C4.opus
tune=+2
</region>

<region>
hikey=c5
hivel=127
lokey=b4
lovel=1
lpc=Oza+QZIzecLKMmFCVpJRwIgD4sHPjEFBah9iQY8ZR8FkpTXAsSL/QPMc3MDfCLpAa7d+v/FZzsApJzRB8MHgwFAEx745mWVAJQtkwGmdwT9C321Abz0XwQ/RHEFB9X7A
lpc_rms=-25.08
offset=379
pitch_keycenter=c5
sample=Oboe_invertedturn_minor_MF_C5.opus
tune=+18
</region>

<region>
hikey=c6
hivel=127
lokey=b5
lovel=1
lpc=kvWjQR3NLsJChCJCFcIpwUTNL8HupItB9SoBwTClGMB0dUJB0j/9wP7Ylr61wPJAz4BpwDnsRz9A1b5AUfsLwfPH2UDGJehAVntwwd+QY0GJH/6/64UIwa31AkF9WX6/
lpc_rms=-26.64
offset=324
pitch_keycenter=c6
sample=Oboe_invertedturn_minor_MF_C6.opus
tune=-25
</region>

<region>
hikey=d4
hivel=127
lokey=c#4
lovel=1
lpc=SSPIQQLokcLu1ahCgDA/woBxUEH2GW0/t6KLwDRJDkDp8SFAA5q4PmxOBcGJ+YVADmXzQA+gAcG1Jf0+BWmuQLfvCsHHjdBAioaFP/nNtMDbdRVAVqrzP7xad7/LjbS+
lpc_rms=-22.80
offset=1684
pitch_keycenter=d4
sample=Oboe_invertedturn_minor_MF_D4.opus
tune=+15
</region>

<region>
hikey=d5
hivel=127
lokey=c#5
lovel=1
lpc=LK/nQfM7p8I9185C+JuSwuiKCULIkyHBpWsjQBeQp7+FXnm+4u2NPak+H0CDxZHAbIKhQFfuGcCSmyA/wJylP9gT0MAKFu1ABf6RP1wsOsBCSDXB6KnYQcIGycG4TRxB
lpc_rms=-21.90
offset=899
pitch_keycenter=d5
sample=Oboe_invertedturn_minor_MF_D5.opus
tune=-2
</region>

<region>
hikey=d6
hivel=127
lokey=c#6
lovel=1
lpc=NEk7QhSWrsJQeqNCNsQiwqfvWEHD5oNA9kg6wJSJXUEqAxjB87rYQNjyO0ExCSnBEfswQQhWbUB6Rjc+vv8qQBfrSkDGAJ1AZhX2P+8gAcAaR5zB3lMsQp2Y68FXAk9B
lpc_rms=-19.51
offset=847
pitch_keycenter=d6
sample=Oboe_invertedturn_minor_MF_D6.opus
tune=-28
</region>

<region>
hikey=e4
hivel=127
lokey=d#4
lovel=1
lpc=tWUVQjBV4cJLAQRD/2GIwjBr80Dmmz9ALZXoQKQaHMBcJrvAM6P1P+pxYj1DOqW/jVzdQGLmtsDLp6A+338pPrNWWEChZFnAIOy9vwF1gUCQd7TAw68eQbNNE8H92khA
lpc_rms=-21.02
offset=2068
pitch_keycenter=e4
sample=Oboe_invertedturn_minor_MF_E4.opus
tune=+18
</region>

<region>
hikey=e5
hivel=127
lokey=d#5
lovel=1
lpc=+WHYQk4bm8Ph9bVDz2lPw8ykTUL3UmZBuINCwvwNoUIQJlLCrfxZwQjA+UFL9ZzBzDApQhuuH8L8v1k/argQQTugjkESDIXBk3v2wZSxg0LZDDDCPfbPQU7d9cFSCZZB
lpc_rms=-10.70
offset=1376
pitch_keycenter=e5
sample=Oboe_invertedturn_minor_MF_E5.opus
tune=-3
</region>

<region>
hikey=G#6
hivel=127
lokey=d#6
lovel=1
lpc=jvo3Q6nVnsOKEotD7hm7whxlncFWWZlCHh0ewqEXUELVtANBbf49QQ0OQkGL3OVBAhRoQWJsCUGFoc1Br/ohQTgxzUGVh8dAJxiEv6LescJac1pDzGsow43onkKSGMVA
lpc_rms=-13.72
offset=530
pitch_keycenter=E6
sample=Oboe_invertedturn_minor_MF_E6.opus
tune=+62
</region>

<region>
hikey=f#4
hivel=127
lokey=f4
lovel=1
lpc=Nu3/QZDVucJ8jNNCa2JVwh7oEEAyhDRBYM6/wGuyGUG0ijfB8pJCP+syCkGP91HB4IZNQY+N5MAlO5w/+DeUQMRNPcAjXcjAUmUGQefhacD4OpdAS2sewcOMAkEHkgvA
lpc_rms=-22.56
offset=1194
pitch_keycenter=f#4
sample=Oboe_invertedturn_minor_MF_F#4.opus
tune=+18
</region>

<region>
hikey=f#5
hivel=127
lokey=f5
lovel=1
lpc=rb0SQmSFtsJyysFCbOgmwqmnzcCxL4JBIZPIwPmGAkFRTRjByb2ewC5lv0GQ9ZfB3pwqP4QlV0GlCRfBexw5P/ZN7r1E9M5A+XlSvyno6cDLTQJBnqg8QHQtOMFMPRhB
lpc_rms=-22.60
offset=657
pitch_keycenter=f#5
sample=Oboe_invertedturn_minor_MF_F#5.opus
tune=-2
</region>

<region>
hikey=g#4
hivel=127
lokey=g4
lovel=1
lpc=X2HDQbOzisJUYp1Cw0URwsbe0sBDKbBBsEydwcLwcUFUTrXAyxj2wKEAF0HLs4s/XRoKwT60MEHPiv/Afp3Jvz+1QUE/p2DBcsvIQJQwjz9QYGbAlAqvQG/3m8BuDtI/
lpc_rms=-20.69
offset=979
pitch_keycenter=g#4
sample=Oboe_invertedturn_minor_MF_G#4.opus
tune=+13
</region>

<region>
hikey=g#5
hivel=127
lokey=g5
lovel=1
lpc=vrUjQsl4pcKMwoZCvz4vwapDjcFDJZZBruYmwdzWLkELxrVAmuq0wbwBmEFeJlC/lUcAv0aAGkDg6szABdU5QfFqjD9V+0PBv+kbQb6OokD1PBXBE5KCQRcyacHjXwZB
lpc_rms=-19.59
offset=914
pitch_keycenter=g#5
sample=Oboe_invertedturn_minor_MF_G#5.opus
tune=+1
</region>
</group>

<group>
amp_veltrack=0
ampeg_decay=20
ampeg_release=0.35
ampeg_sustain=0
group_label=Group_91-127
lpc_hicc1=127
lpc_locc1=85

<region>
hikey=a#4
hivel=127
lokey=a4
lovel=1
lpc=zG8KQqFdwMKSgdRC89lIwmBClsDFpq1BkSNRwZtmhEBkWIw/T9liQB1tisEQ0nlBZ3lAQHDvMcEkCi1BV3IWwWkHN0DqYsRA43YcwRi++D/ceNZA2JJ9wIaAqj9kW6G/
lpc_rms=-18.57
offset=1089
pitch_keycenter=a#4
sample=Oboe_invertedturn_minor_FF_A#4.opus
tune=-5
</region>

<region>
hikey=a#5
hivel=127
lokey=a5
lovel=1
lpc=gss5QmZU2sLoH+dCNhNUwvHbysDLwc5BJoF+waDRbkHXXW/BKP6CQZEbZcEQZF1BF3QJwXlPGUDsbmVBvRbVwZUI6UFBhTjB0MKVv7w4lUB+LwTBsjSyQbBprMHVHexA
lpc_rms=-17.75
offset=308
pitch_keycenter=a#5
sample=Oboe_invertedturn_minor_FF_A#5.opus
tune=-28
</region>

<region>
hivel=127
key=c4
lovel=1
lpc=biNJQlwwJMP7SWRDNVUpw9rwhEJ5K/rAD40Ywfcd10GoARDCsbyyQXwVNsEoSxBBFhIZv62POL90oDvBx4GGQRXCBsHcGBFBiheewUc+oUEM+A3Bl4OvP+QDnr9Ejt8/
lpc_rms=-14.91
offset=3345
sample=Oboe_invertedturn_minor_FF_C4.opus
tune=-14
</region>

<region>
hikey=c5
hivel=127
lokey=b4
lovel=1
lpc=X2LFQbMmh8IS2ZJCGOECwtMkvsBYvYVBqm3xwFXbFr8WH84/zr5VQG1lEsF+qeVA6uKqP+9Vm8Dil1pAjBiGwBftwkA/Uam+4s/mwLl4ikCWW7xAaswyweQ3BEE2ui7A
lpc_rms=-23.57
offset=473
pitch_keycenter=c5
sample=Oboe_invertedturn_minor_FF_C5.opus
tune=-7
</region>

<region>
hikey=c6
hivel=127
lokey=b5
lovel=1
lpc=OlvUQR47bcKwgYNCyowawkz/30A/slxBw8cQwSBGPcDMvl9BmuAJwaMokL/8UkRB+3scwfhju0A1VVBApsQDwWIxWkGYK/bAjS+/vz4WWEFrOy7B4pgtwJ5P8UDoGxu/
lpc_rms=-20.10
offset=184
pitch_keycenter=c6
sample=Oboe_invertedturn_minor_FF_C6.opus
tune=-62
</region>

<region>
hikey=d4
hivel=127
lokey=c#4
lovel=1
lpc=Dg7jQZEGq8LfZspCYvFVwpcQ/ED0sY6/IDAWQQLsEcHsUAVBJjQgwUEbnEA3Wo2/MeG9QOcB+8CcuP8/6DWjQAgNGsEtFUNBIHJcwcQWUEHfvw3BoDeLQEThx7/xjoc+
lpc_rms=-19.31
offset=993
pitch_keycenter=d4
sample=Oboe_invertedturn_minor_FF_D4.opus
tune=-10
</region>

<region>
hikey=d5
hivel=127
lokey=c#5
lovel=1
lpc=KUejQV2ghcL+iMFCG+mbwiQ0EUJzfeLAWUElwLx5xj/vSSo/Lv9UQHkZEsEJivNAi+rYv6X/MEAqAtjAnwGiQCWkzr/lkis/sixFQFf09cBDHoJANbekQHSg8cBVWkpA
lpc_rms=-19.43
offset=1227
pitch_keycenter=d5
sample=Oboe_invertedturn_minor_FF_D5.opus
tune=-15
</region>

<region>
hikey=d6
hivel=127
lokey=c#6
lovel=1
lpc=pFyZQTLvHsKYmS5CMkDPwRr9BEE184FA4HVLwJDfx0BfBdDAFXUFQVM2gDwDWTTAtxy9QNbmkz5Ncqu/Y+meQPMI/r+NinhA2zIawM3aVb+aciFAgdGBQIWht8D/h4FA
lpc_rms=-24.04
offset=846
pitch_keycenter=d6
sample=Oboe_invertedturn_minor_FF_D6.opus
tune=-59
</region>

<region>
hikey=e4
hivel=127
lokey=d#4
lovel=1
lpc=JrU6Qs3MEMOUdzRDoDbZwpC4wUE7q2pBqbG7wVHn2UENwcvBNzhQQXNxP8As/wHB1f6pQapjSsGyR5vAKdWiv9U0m0G4b6PBALF5QCa91kDItpTAsWi6QP+DDMGou4tA
lpc_rms=-16.13
offset=1392
pitch_keycenter=e4
sample=Oboe_invertedturn_minor_FF_E4.opus
tune=-19
</region>

<region>
hikey=e5
hivel=127
lokey=d#5
lovel=1
lpc=YoCQQgiOVMPbiYZD86g1w4+IgUIfC73AhlpJP3JQDkHw6qTBELgOQF+Kt0EsRN/BdbECQkw4y8FUwjZB2jozwY8KWUG+3YPAue6IwHnBEkH4VV/BZNsAQmphIcIDiZ5B
lpc_rms=-11.35
offset=798
pitch_keycenter=e5
sample=Oboe_invertedturn_minor_FF_E5.opus
tune=-24
</region>

<region>
hikey=G#6
hivel=127
lokey=d#6
lovel=1
lpc=E5IsQ1ksj8OkImNDicIewuZ/YMLjGMhCbFF0wj5zk0Jw5ijBMTmqQWM6HkFZxP5B7su/QMSCrUFigARB2e/5QeFtOr/Ckh5CaDa7wtpql0JK6JhC6U7mwtSSokJeiJfA
lpc_rms=-7.05
offset=702
pitch_keycenter=E6
sample=Oboe_invertedturn_minor_FF_E6.opus
tune=+27
</region>

<region>
hikey=f#4
hivel=127
lokey=f4
lovel=1
lpc=OBC9QeNuk8IuTsRCW8CGwj50XUGMQqVBAFS0wUBKL0HHgjDAeMnwPlvolb/ibFDA3CtFQeQNYMHwYONAtlk0P69cWsDxTXJA9HzawGOA40BQr4c/8IUXwSpICkFnFizA
lpc_rms=-22.04
offset=1163
pitch_keycenter=f#4
sample=Oboe_invertedturn_minor_FF_F#4.opus
tune=-13
</region>

<region>
hikey=f#5
hivel=127
lokey=f5
lovel=1
lpc=Hp7LQcG3iMIS3rZCQa2TwkEkGkL1khTB4j9HwBgHKUHEP13BhfxLQRvKucBK+M6/wMcTQaacAcEq6FVAGIJfP2WLNMCIsuZA5z4DwXESNEFwTofBxfmyQWSsk8HVRBFB
lpc_rms=-19.60
offset=1113
pitch_keycenter=f#5
sample=Oboe_invertedturn_minor_FF_F#5.opus
tune=-23
</region>

<region>
hikey=g#4
hivel=127
lokey=g4
lovel=1
lpc=TWl2Qf/BM8JJ4l9CJygHwsQohkBZXQFBEgNBwE78FMBgxRFA32aDPQVvo8CdaRRBLsbzwIdaiECwaZe/tSMDwA92YUAawxvA12XCP0PKQcAuW1VAVX9qPyULc8DGM/Q/
lpc_rms=-22.93
offset=778
pitch_keycenter=g#4
sample=Oboe_invertedturn_minor_FF_G#4.opus
tune=-19
</region>

<region>
hikey=g#5
hivel=127
lokey=g5
lovel=1
lpc=n3FkQqE3+8JxpQND6H12wlH9Z8AREvVB91G1wR9A3UEW5pfB1nGAQOZfN8DegMBBRe3Kwd+XjUFn5rA/KsOjwGSE3EBayArAspS1v3l+00CmV9lAZZS6wMHuyD/BUo5A
lpc_rms=-13.71
offset=1044
pitch_keycenter=g#5
sample=Oboe_invertedturn_minor_FF_G#5.opus
tune=-26
</region>
</group>

<group>
amp_veltrack=0
ampeg_attack=2
ampeg_release=0.35
group_label=PP
lpc_hicc1=42
lpc_locc1=0
volume=-3

<region>
hivel=127
key=A#4
loop_end=254606
loop_mode=loop_continuous
loop_start=56499
loop_xfade=24005
lovel=1
lpc=g4JHQq9rDcMVSh1DSqOJwpsLocExQBVCTYspP4+Rr8GB6PpAnMiBQEgFjb/xo2HAVwQXQS6rQsEEvypBS0v1wGyQ7UA2C9y/MYyUwXglBkJCfrjByjiBPwRGNUHoedXA
lpc_rms=-22.03
sample=Oboe_sustain_PP_A#4.opus
</region>

<region>
hivel=127
key=A#5
loop_end=252424
loop_mode=loop_continuous
loop_start=56015
loop_xfade=23799
lovel=1
lpc=/msjQtYRisI8g3VCFVtnwXWam8HEBe5BqqcAwUX+KcEClKhB1PWlwHElFMEBHZdBuajnwNLZUsDIHpBBmLCUwX/GZEE3z/ZAGLSmwetmxkE6AYjAz8t5wXQi9kGmxozB
lpc_rms=-26.30
sample=Oboe_sustain_PP_A#5.opus
</region>

<region>
hivel=127
key=A4
loop_end=246638
loop_mode=loop_continuous
loop_start=54731
loop_xfade=23253
lovel=1
lpc=Xpt0QhJfM8OjnkVDGNeTwjEJVsLoVrNC2DBXwgC9f0FdD7K/czlawDQGBEGJHo3BUBGIQe+Hmb+SoenAhAcZQLFYHEAODH9Atfh8waWxWEHJORG9QQwKwT9vKkFvJanA
lpc_rms=-18.71
sample=Oboe_sustain_PP_A4.opus
tune=+2
</region>

<region>
hivel=127
key=A5
loop_end=253010
loop_mode=loop_continuous
loop_start=56145
loop_xfade=23854
lovel=1
lpc=kEwRQlXYnsIsco9CjVEgwSNPHsLPqzJC5DRQwaBEMMEtVn9BJknHwN9nhr3WRcxAt5bVwCaYm0CbRi5AJ4fpwFqIRUEqPcDAogqowM5hakGYjPnAndf1v4x1CEGoH3vA
lpc_rms=-26.63
offset=16302
sample=Oboe_sustain_PP_A5.opus
tune=+1
</region>

<region>
hivel=127
key=B4
loop_end=259972
loop_mode=loop_continuous
loop_start=57690
loop_xfade=24511
lovel=1
lpc=ervpQbG+q8Lmtr1Cg4cNwmZE0cEPkTNCZdXYwZfliED/EX1AUiCmwLvZC0HnD5nAneT5wPXZA0FlfCFAiA2owCXRR0A0wWzA9sKVQHGqYcBtNdm/29gEQZTAA8HP6zZA
lpc_rms=-26.25
sample=Oboe_sustain_PP_B4.opus
tune=-1
</region>

<region>
hivel=127
key=B5
loop_end=249964
loop_mode=loop_continuous
loop_start=55469
loop_xfade=23567
lovel=1
lpc=FTBlQtVJuMJ13oFCbol8QDUNJsJ99hxC5lMcwb5tO8DE5CtBvymCwawHv0E3kvzASsQuwVm9xEGCtR7BHK4owbADtkHY1+PAHwESwLrC/kD8nTLBOlvkQXz+6cHCmZhA
lpc_rms=-25.38
sample=Oboe_sustain_PP_B5.opus
tune=+1
</region>

<region>
hivel=127
key=C#4
loop_end=250571
loop_mode=loop_continuous
loop_start=55604
loop_xfade=23624
lovel=1
lpc=C/4dQuWT8cK3OxNDsD6qwo9vV0EZfYtBw+2XwWphl0FGDI3BDa09QSb4WsEUZiRBUSm+QPrecMHrUIJBxpVdwfRWm0DXkvZAoTgpwSnYwr8QRydBudKzwLUXwj7IrLw9
lpc_rms=-24.78
sample=Oboe_sustain_PP_C#4.opus
</region>

<region>
hivel=127
key=C#5
loop_end=248808
loop_mode=loop_continuous
loop_start=55213
loop_xfade=23458
lovel=1
lpc=kCXrQYoHq8Ivvr5CaUQgwpgsX8HXFblBH76dP6nVasFZM/s+4iNCQWCkw8ANmKHAN6mOQKqNBkHwzjXBVFaXv2KFCkFlj9i/mFffwBAvI0ADRiRBjNknwXDp/D4luAhA
lpc_rms=-24.97
sample=Oboe_sustain_PP_C#5.opus
tune=-2
</region>

<region>
hivel=127
key=C#6
loop_end=262257
loop_mode=loop_continuous
loop_start=58197
loop_xfade=24726
lovel=1
lpc=hHeWQvvN1MIVQppCfDCewfFnG77An7ZB8eKGwV/E9EE4LYzBW8KlQTiExz91FiPAVWmMQYJsNUDBq+zA51DoQRt9pcGT8uhBxu9QwTuBbEHJsFtBRS9Pwg50H0KU1/i+
lpc_rms=-22.13
sample=Oboe_sustain_PP_C#6.opus
tune=+1
</region>

<region>
hivel=127
key=C4
loop_end=249404
loop_mode=loop_continuous
loop_start=55345
loop_xfade=23514
lovel=1
lpc=Z7F4QuKDQ8N1H3NDjQESww4OBUIMuqZBFyzjwel9iUHkUP/AQwuvQCpCg8BaWDrBlperQUusYL1/AlvBGV0tv5WsKkGdLtq/05QhwWkRx0Dg60tBOqzLwY0LmUGypqvA
lpc_rms=-22.35
sample=Oboe_sustain_PP_C4.opus
</region>

<region>
hivel=127
key=C5
loop_end=243661
loop_mode=loop_continuous
loop_start=54071
loop_xfade=22973
lovel=1
lpc=wkCrQaPSa8J7FXRCoxaAwSGxrMF9cppBkVi/QEAXkMFpOdZAjhUBQSRi5MA2tzbAihjuQMWkc7/cFe7A/lK3QE0JzUDLXzjBLQPcPwt8E0FxMYzADrUywWfUekEZm8jA
lpc_rms=-29.11
sample=Oboe_sustain_PP_C5.opus
</region>

<region>
hivel=127
key=C6
loop_end=250823
loop_mode=loop_continuous
loop_start=55660
loop_xfade=23648
lovel=1
lpc=HKY2QgkTgcKkYUtC7JF0wanWxz+21i9BtsWywK5JbUHnXjvBsYuEQaRokMD3W5dA7MiRQFELF76cZh9Bkzz9wFSqgUEjlfjAyoAWQT8z/L6SCGdAlfVkQUlFAsI2a5hB
lpc_rms=-26.05
sample=Oboe_sustain_PP_C6.opus
tune=+3
</region>

<region>
hivel=127
key=D#4
loop_end=263801
loop_mode=loop_continuous
loop_start=58540
loop_xfade=24872
lovel=1
lpc=z5g/QgLwCcPiDBJDx1Q5wg0eQMJMGo9Cf7QMwqeQqMAeT0hBhXA7wB1IgkBlvorB/027QY9xf8GKUE1BwGFfwUpMukAhAkNBr2q+wRrOlkFLicjAHYuOv9viDEAu/B6/
lpc_rms=-23.56
sample=Oboe_sustain_PP_D#4.opus
</region>

<region>
hivel=127
key=D#5
loop_end=244112
loop_mode=loop_continuous
loop_start=54171
loop_xfade=23015
lovel=1
lpc=v1GAQsV2LMODC0BDORm8wkDVs8EbnoZCKYMCwhg7xb+U+2RAZ4cXwPtKbUHUP6bB/skcQbpRLkCDBb6/qhYmwFcLF8EkagJCQ8DWwe7yKUCCUClBb1M4wICvacEvHFtB
lpc_rms=-22.14
sample=Oboe_sustain_PP_D#5.opus
</region>

<region>
hivel=127
key=D#6
loop_end=250041
loop_mode=loop_continuous
loop_start=55486
loop_xfade=23574
lovel=1
lpc=AkH4QhsEMsPgd7tCWEQ9QqZilsKBpkFCvN62QBkNvMDDe9FBp07oQHzZ4T/ND4RByeF1Qbng/D5FRpBBUTqjP1NOvkF6levAmAAAQrwpvMIyw7ZChAnaQVGelsKNMFVC
lpc_rms=-16.94
sample=Oboe_sustain_PP_D#6.opus
</region>

<region>
hivel=127
key=D4
loop_end=262007
loop_mode=loop_continuous
loop_start=58142
loop_xfade=24702
lovel=1
lpc=jqMHQrwRxcK3seNCcwaGwujRXEE/E5FBgKKWweKTA0EonPnAY1UuQe0WasFj8CZBwomTQLH2NcFRVABBml5ewBA9jMDpxRFBQ9qHwI6jVcCSTGBAYty9QMV9KcHpW5RA
lpc_rms=-25.12
sample=Oboe_sustain_PP_D4.opus
</region>

<region>
hivel=127
key=D5
loop_end=250587
loop_mode=loop_continuous
loop_start=55608
loop_xfade=23626
lovel=1
lpc=GdQNQpOh4cLh8xhDi0bbwhgmBkIfvWJBL5wlwec1oMGMdPBBDazSwOMipMEGe71BEUgGwQp+hj5V0sfAaLVyQQ10UsGDJz8/qwzvQN9WhcBtDO7A6X+nQdoYp8HH3QJB
lpc_rms=-24.64
sample=Oboe_sustain_PP_D5.opus
tune=-2
</region>

<region>
hivel=127
key=D6
loop_end=259971
loop_mode=loop_continuous
loop_start=57690
loop_xfade=24510
lovel=1
lpc=4DmAQsyMn8ILr/xBLdG9QUHGkcECgb5BUsElwQB4DEGVMilAKe6bP5RJzEB1jd2+GV8bQFLRGUE3mEnANHCZQEQ6gEBYJKE/73y5QOTAn0B5TSbCSs3BQWpJykGNeNzB
lpc_rms=-25.98
sample=Oboe_sustain_PP_D6.opus
</region>

<region>
hivel=127
key=E4
loop_end=253424
loop_mode=loop_continuous
loop_start=56237
loop_xfade=23893
lovel=1
lpc=GkdRQhVwHcP4ZjBDmJmSwp3kxMFdvUZChqCxwfSXZ8BwaA5B6jd9wX2fZEF5cQrB6KNbQQRHwMBVqvvAPc8IQL8xKUH+DtjAmjUmwbwMa0E769A+e4oLwR3IQEBBs00/
lpc_rms=-22.95
sample=Oboe_sustain_PP_E4.opus
tune=-1
</region>

<region>
hivel=127
key=E5
loop_end=254547
loop_mode=loop_continuous
loop_start=56486
loop_xfade=23999
lovel=1
lpc=T2nHQsx9fMOx1odD8WcLw5drCcDot3tCi0gMwsxRUMGCLRRCuHbJwaVAKkExfRvAJRLDwEa0OEEnhgfBPh4MQbNUlL+ywB/Ae6mEQBB9O0CMa2fBwX7cQT+LCsKRobhB
lpc_rms=-19.20
sample=Oboe_sustain_PP_E5.opus
tune=-1
</region>

<region>
hikey=G#6
hivel=127
lokey=E6
loop_end=267650
loop_mode=loop_continuous
loop_start=59394
loop_xfade=25234
lovel=1
lpc=hNipQnTd+MKksJ5C/d1gQBWojsEqTVRAWAGGQX5kn0DgFDHAIviYQdD/I0BamipAJRpOQQBYj0BAxDVAWmVzQcJi+z+wszBAn0BJwuT6kkIE0jnBB+sBwh4mF0LXxZ/A
lpc_rms=-18.03
pitch_keycenter=E6
sample=Oboe_sustain_PP_E6.opus
tune=+1
</region>

<region>
hivel=127
key=F#4
loop_end=256285
loop_mode=loop_continuous
loop_start=56872
loop_xfade=24163
lovel=1
lpc=oK/KQfaOmcJFW7dCIMUrwlMyisFDOBtC3Di2welnlUDS9qA/G/SHwDnQ+0CmfGjBr3GWQThuO8HScx9Ao/1nP1av777q9gpA7ngYwY9YPEF4zDjA4wSpwG3Up0B+sdO/
lpc_rms=-26.61
sample=Oboe_sustain_PP_F#4.opus
tune=-1
</region>

<region>
hivel=127
key=F#5
loop_end=255342
loop_mode=loop_continuous
loop_start=56663
loop_xfade=24074
lovel=1
lpc=odADQsm1nsKX3JxCtDqewc5dysE40pNBk4svQRhJXMHplQc/vqG5QBBMi7+Y21E9OxBDQK6FJsF1Bp1B+hdbwc6IUsDiQWZBugUzPVgEl8EnMY5BDptuQJXfgMGD3DNB
lpc_rms=-26.21
sample=Oboe_sustain_PP_F#5.opus
tune=-1
</region>

<region>
hivel=127
key=F4
loop_end=257959
loop_mode=loop_continuous
loop_start=57244
loop_xfade=24321
lovel=1
lpc=eTVhQoM7JsMt7TtDz+KxwpaF/8AcnwlCDVEWwZUWNcF4h2ZBBV0qwYIW2r9LAuVAYo8GwVSFX0ElEwTBgZ/jwIYJhEHhN97A7v1swPTDVr6lTDRAzMdgv2iB6D8+GXy/
lpc_rms=-22.05
sample=Oboe_sustain_PP_F4.opus
tune=-1
</region>

<region>
hivel=127
key=F5
loop_end=252081
loop_mode=loop_continuous
loop_start=55939
loop_xfade=23767
lovel=1
lpc=ZA0MQ/5ql8P9C3pDKZbGwQLK5cKGXIhCPYooQvA0MMKaRPk/M4oyPnaoIELK0zbCqQXBQE52DkKLG8vBYkHPwE71A0IXUrnBWn2fQZaTzcF0tqpBFIRuQVleKsLChw5C
lpc_rms=-19.40
sample=Oboe_sustain_PP_F5.opus
tune=-1
</region>

<region>
hivel=127
key=G#4
loop_end=251843
loop_mode=loop_continuous
loop_start=55886
loop_xfade=23744
lovel=1
lpc=HW0wQlRV+sJaCABDlA3GwbGxb8Jmj0pC6JOlQJrMr8G+wyNA5gm+wFvBuEEumG/BfTYVwDLTqkCSqG9A6OGhwFj3ib+UL5nAZYJbQXFV5MAJubTAteM7QVAxGcH2Al9A
lpc_rms=-22.24
sample=Oboe_sustain_PP_G#4.opus
</region>

<region>
hivel=127
key=G#5
loop_end=252146
loop_mode=loop_continuous
loop_start=55954
loop_xfade=23773
lovel=1
lpc=vzmHQkYh9MK7YbVCUHd1QYV3f8LF1hdCEhbRQRaV58FQYSTAJWjtQeFwfMFhe3BBIHY3wbhUP0HJCxtBZ8WOwaAroEGK8k1AGNrVv3CWE8EwU5FBMPQdQRf6qMEl9qdB
lpc_rms=-24.04
sample=Oboe_sustain_PP_G#5.opus
</region>

<region>
hivel=127
key=G4
loop_end=272560
loop_mode=loop_continuous
loop_start=60484
loop_xfade=25697
lovel=1
lpc=n+OVQd6RUcITVmBCxiOfwU/zcMEh+qpBOt8JwYzV+r8XkZdAB5mfwMFsLEDEBpm/B2GKQGEJgcCkSRq/xImOv3I3w0BzgCrA2UmiwFtpYEB1Z6ZAnojHwJzKHj59fN4/
lpc_rms=-29.61
sample=Oboe_sustain_PP_G4.opus
</region>

<region>
hivel=127
key=G5
loop_end=256746
loop_mode=loop_continuous
loop_start=56974
loop_xfade=24206
lovel=1
lpc=jeQGQo8XhcKYNFxCwa2UwGIQtcFUu5tB8mLEwDqWB0GWs5zAQ4URwOXA+kDoeKDAAl3PQPvRlkD1gyHB9danv2bvgEHC/OS/pxcfwVBNTUAchCxBlaEGwM/4I8GQFkRB
lpc_rms=-29.34
sample=Oboe_sustain_PP_G5.opus
tune=-2
</region>
</group>

<group>
amp_veltrack=0
ampeg_attack=2
ampeg_release=0.35
group_label=MF
lpc_hicc1=84
lpc_locc1=43
volume=-3

<region>
hivel=127
key=A#4
loop_end=270939
loop_mode=loop_continuous
loop_start=60124
loop_xfade=25545
lovel=1
lpc=r8wEQsVXv8JLztxCrqdVwhLUdcGmrCxC3aHKwRINuz6qUNRAlayCQOQOoMEeI5RBTGxLPzz5esFhRLVBQzitwRouMEGrTqpAMvC6wa5g3kEvpF7B8BrxvgzJw0B47mzA
lpc_rms=-20.90
sample=Oboe_sustain_MF_A#4.opus
tune=-2
</region>

<region>
hivel=127
key=A#5
loop_end=259344
loop_mode=loop_continuous
loop_start=57551
loop_xfade=24451
lovel=1
lpc=0Jd2QrsmzMLzj6tCNuawwZtCgcGrCrtBl74hwG7XmcDpJhlB8jOoPxBTr8AQZkhBmelywGBdoDzg2RJB+Ps0wMFyIsAXL4VBuJNjwf6nO0FO/+tAeKrcwTl+QUIYge7B
lpc_rms=-20.41
sample=Oboe_sustain_MF_A#5.opus
tune=+1
</region>

<region>
hivel=127
key=A4
loop_end=257644
loop_mode=loop_continuous
loop_start=57174
loop_xfade=24291
lovel=1
lpc=OFbOQTOMn8JjFdFCnweLwvJaLEFfB9NBZITlwWJLg0GQV9PASMegQFQc2MCKTFk/vcjEQFM/qsBHRS5A+oAOwHiTfED6FxDAQdKOwHqvy0BBYcc9Sa70wCwFB0ERnUHA
lpc_rms=-21.25
sample=Oboe_sustain_MF_A4.opus
</region>

<region>
hivel=127
key=a5
loop_end=283719
loop_mode=loop_continuous
loop_start=62960
loop_xfade=26750
lovel=1
lpc=NC4eQq05dsJZjz9Cpvj/PzIps8HgpddBTE80wYS3yEAZ/qxA8A8OQJ1Qsr1Kx51AD0t8wDWNbUFZRM8/EwuSwaUo90HEDFDBzAyKQNIIyUCV+QRAZjVXwO0OHkH0AihA
lpc_rms=-20.73
offset=10645
sample=Oboe_sustain_MF_A5.opus
tune=+1
</region>

<region>
hivel=127
key=B4
loop_end=264955
loop_mode=loop_continuous
loop_start=58796
loop_xfade=24980
lovel=1
lpc=r5/rQRUhrsIdRtdCiLd2wvr4/MAK/FNCgYVcwrre4kEbB0RAu3+twWvdvEG6az/BjldiPvnJwz8RIj4/aDMLwOmGjUCr16C/QSsBwfV8wUA4QhxBGEeLwYNwPUG6dIDA
lpc_rms=-19.95
sample=Oboe_sustain_MF_B4.opus
tune=-3
</region>

<region>
hivel=127
key=B5
loop_end=260015
loop_mode=loop_continuous
loop_start=57700
loop_xfade=24515
lovel=1
lpc=cU9xQvxaw8L1yJlCZVUZwPvjL8Ixxi5CbQkbwBg7kcHrdptBJPyVwMj+t0Dr8Ei+YRlau7fH1EC2QYY+PQsoPrbKcEBnA7g/So/0QKudssBQa8TAPR4MQn40BcIYiIpA
lpc_rms=-20.86
sample=Oboe_sustain_MF_B5.opus
tune=+1
</region>

<region>
hivel=127
key=C#4
loop_end=272253
loop_mode=loop_continuous
loop_start=60415
loop_xfade=25669
lovel=1
lpc=AvpLQmITG8OHsjlDLN3PwpdBnEHNJThBbwpnwQoTbkH1cAfBE8KYQNl78MAe0zLBpVDYQU0UqcArrXbBVwg5QXZpFcDwSKtAQI4LwRo4CcCXwOJA1ZY2wPR+kUALQ1vA
lpc_rms=-20.53
sample=Oboe_sustain_MF_C#4.opus
</region>

<region>
hivel=127
key=C#5
loop_end=270507
loop_mode=loop_continuous
loop_start=60028
loop_xfade=25504
lovel=1
lpc=QMi+QW/UgsJ7u5dCjYkjwvBQOsBNOJtBcS8AwaST6MBByo5BQpx2wZzYi0CjspQ/l/vCv2Ij9z9ZEMC/C9s2v4osQL7Kku5AGN8AwV/uvD5pcjlAfOavP+5XqcAEnjhA
lpc_rms=-21.33
sample=Oboe_sustain_MF_C#5.opus
tune=-1
</region>

<region>
hivel=127
key=C#6
loop_end=272041
loop_mode=loop_continuous
loop_start=60368
loop_xfade=25649
lovel=1
lpc=zM6SQo/0uMKm92hC2qyswVM1kUGCxpLAHV0dQZ9SREHGqznBeoCqQRaSpz/cR3vAn+yZQUOQZMB0at5Ax4vwQFXtm0CdOYo/AUkmQXrAKUC7i1RBIZQiwsxkj0GdkHVB
lpc_rms=-20.34
sample=Oboe_sustain_MF_C#6.opus
tune=-1
</region>

<region>
hivel=127
key=C4
loop_end=270272
loop_mode=loop_continuous
loop_start=59976
loop_xfade=25482
lovel=1
lpc=l+KSQlQtfcOVu69DJXZYw9DzhUA/cZRCNr66wXPGF8JxPE9CrQhnwURlE8KfYO5BibnDQchq+cHwKXvBkozuQQ83k0A1l4PB3AbqwJwMkEHAZw7BGQgRQDfB2r5SbQA/
lpc_rms=-17.87
sample=Oboe_sustain_MF_C4.opus
tune=-1
</region>

<region>
hivel=127
key=c5
loop_end=261147
loop_mode=loop_continuous
loop_start=57951
loop_xfade=24621
lovel=1
lpc=Bn+wQUe1f8KCKaBCaro8wq3FM8BrC/NBm42uwaJjCkCC9stAbMA6wFQlfr9sTVw9gCyJQCGULMD2Y1jAN3RkQH4Gc0CQnlzAznzLwKi1KEFbF7G+64xOwe41YkFRlajA
lpc_rms=-22.84
sample=Oboe_sustain_MF_C5.opus
tune=-1
</region>

<region>
hivel=127
key=C6
loop_end=251106
loop_mode=loop_continuous
loop_start=55723
loop_xfade=23675
lovel=1
lpc=V5bKQfdYAcKTObFB5apgQCOK38AyhdJAWZnzQDelRsDg8eM/mmsLQZv9KsDU2Y9A9qgqQAYN8T/vdatAeSUFwONctECGG6hAZItUwIh3lkAi8/5A1wb2v/mFCsGZbwRB
lpc_rms=-25.83
sample=Oboe_sustain_MF_C6.opus
tune=-1
</region>

<region>
hivel=127
key=D#4
loop_end=270245
loop_mode=loop_continuous
loop_start=59970
loop_xfade=25479
lovel=1
lpc=kZ9fQu51L8MokVhD6qLYwoyw1MHzL5JCZYwTwrL6pcBeaIJBvORhwZL0jEEXT8fBUDG/QaK8AcE3FvzAkhr/QIAxD0ACbkDAPJJywPwVCEHLbuzAPNuDQHRdQsAdJek/
lpc_rms=-19.57
sample=Oboe_sustain_MF_D#4.opus
</region>

<region>
hivel=127
key=D#5
loop_end=266962
loop_mode=loop_continuous
loop_start=59241
loop_xfade=25170
lovel=1
lpc=M3pbQl3+HMMB+EZDK0sHw5KoDULnvKBB8rRPwTMqVsGxBNNBNubFwXUvs0FbSKPBZBqLQdYCBcFZXApAYpbJvChuJcFe2LNB+7uKwSR4S0GO5pTBo5GUQSraOMGVscRA
lpc_rms=-15.07
sample=Oboe_sustain_MF_D#5.opus
tune=+1
</region>

<region>
hivel=127
key=D#6
loop_end=249640
loop_mode=loop_continuous
loop_start=55398
loop_xfade=23536
lovel=1
lpc=h0v6QifOJcMIxqhC5gUOQusHUcKOlRxCi6atQIYtNUDvX+FB0GMLQCZxTEEFQ5xBuDvqQPFCOkHAr5ZBvJAjQKxk10GhlA/Bqo86Qr6U1MJM9KlCZyZFQitMqMLOrmdC
lpc_rms=-18.16
sample=Oboe_sustain_MF_D#6.opus
tune=+1
</region>

<region>
hivel=127
key=D4
loop_end=273126
loop_mode=loop_continuous
loop_start=60609
loop_xfade=25751
lovel=1
lpc=czT9Qb5bvMLN/thCIn9jwhMd3UA4VDhBSS3gwMkRFsEdcZhB4eD8wOhXOsGXFX1B1fMnwAAUOMF7U2xBG6dpwIrbXsFLJ6tBHCJbwSkfVj4M5elAhEliwJ6J3L9C+Zw/
lpc_rms=-22.61
sample=Oboe_sustain_MF_D4.opus
tune=-1
</region>

<region>
hivel=127
key=D5
loop_end=265874
loop_mode=loop_continuous
loop_start=59000
loop_xfade=25067
lovel=1
lpc=7euZQfFjccLdcapC2AuMwjdnC0IuoO7ACBt0v/mklMCUnW9B+dmgwRWlhUFIfTrBD9wJQVlvPcBV8UbArh/TQEEE/sAyDbJAua29P1wq28AKwZ9ASi7RPxUQkMAPxRNA
lpc_rms=-21.99
sample=Oboe_sustain_MF_D5.opus
tune=+2
</region>

<region>
hivel=127
key=D6
loop_end=271916
loop_mode=loop_continuous
loop_start=60341
loop_xfade=25637
lovel=1
lpc=iNdHQtJ2gsKSFgtCo0ctQJM+zT//PWxAusA0v/b+S0Cc5YFAuNdVwIoi+UDTzhLA0gX1PwHox0ADfIfAS6v5QJ8hrMC+OxhBPiS6wIlpa0EDKz/CTXAOQstNi0D59HjB
lpc_rms=-23.01
sample=Oboe_sustain_MF_D6.opus
tune=-3
</region>

<region>
hivel=127
key=E4
loop_end=250798
loop_mode=loop_continuous
loop_start=55654
loop_xfade=23646
lovel=1
lpc=gpcfQl9P+8LVhR1DFLu0wjlWrkC77OhBULOdwYKLKUH9N13B19MEQbwV9UBTh6rB/dukQZoqwMALaUPAKR6uvwyb5UAYCBzAn3cTwbsOUUE/7+7AqNWAQMRrbcAf8do/
lpc_rms=-23.82
sample=Oboe_sustain_MF_E4.opus
tune=-1
</region>

<region>
hivel=127
key=E5
loop_end=261012
loop_mode=loop_continuous
loop_start=57921
loop_xfade=24609
lovel=1
lpc=IFoDQ2fas8OC+ctD4ntWwyKkwEHNlyRC0zo7wi1FhEIESDvC730OwfsEskENuTfBzJbrQe2IVcH9nWbB7MBmv6WzxUFPPTrBHjhuwCFDKr+1P4TB3V/LQgfUC8MSL4ZC
lpc_rms=-10.10
sample=Oboe_sustain_MF_E5.opus
tune=-2
</region>

<region>
hikey=G#6
hivel=127
lokey=E6
loop_end=261841
loop_mode=loop_continuous
loop_start=58105
loop_xfade=24687
lovel=1
lpc=hhiYQuIP28JeV4hCfkqcQS1r68FHEaZBBRzBQD6XAUFQQBZBiUjfQP8IJEEGX8tAovUZQdKODUHD5oNAoACKQY7vkMB5NOJB+3iRwt1mokInXE0/jqdPwsXKN0IVWuHA
lpc_rms=-20.03
pitch_keycenter=E6
sample=Oboe_sustain_MF_E6.opus
tune=+3
</region>

<region>
hivel=127
key=F#4
loop_end=270982
loop_mode=loop_continuous
loop_start=60133
loop_xfade=25549
lovel=1
lpc=xlIAQuL3wsK7nvZCPNKcwrjJg0GKVoFBK/COwV3jMUHWxLHA5n3JP9KthkBtEn/Bdf69QTQAcsFIsZ08gbe/QHhfm8BotqVAUsLXwEi/l0A0qjBAHAgQwVOD5EAC4wnA
lpc_rms=-21.12
sample=Oboe_sustain_MF_F#4.opus
</region>

<region>
hivel=127
key=F#5
loop_end=254875
loop_mode=loop_continuous
loop_start=56559
loop_xfade=24030
lovel=1
lpc=f/wQQupVwcKeHf1C27a3wkfK9kFIPJtAn7ibwAZSdUC/FuTAzCynQDh8jkClvn/AmYEev2qn2j8mi5dAz82cwFl1Rb8ZM7RA1scPwNKcKkB4ZtTA9rMsQfmwBcFbtrZA
lpc_rms=-17.19
sample=Oboe_sustain_MF_F#5.opus
</region>

<region>
hivel=127
key=F4
loop_end=273337
loop_mode=loop_continuous
loop_start=60656
loop_xfade=25771
lovel=1
lpc=JS8LQlJQ0sK9pARDdUWowsTAGkGkpidC9Ac+woURtUHF1I9AEd14wY9JUUGuSHrBT7SkQVBiS8Gs3lM8GfC4QJnjmMDsoX9A3SRqvlRS1cBGXNhARdktv29n5r+2XYQ/
lpc_rms=-21.71
sample=Oboe_sustain_MF_F4.opus
tune=-1
</region>

<region>
hivel=127
key=F5
loop_end=253941
loop_mode=loop_continuous
loop_start=56352
loop_xfade=23942
lovel=1
lpc=2iGMQqZHDsPvtuZCUwK4wT9T7sHxN5pBT2DiQNDQycDUzktBAQgxweVxTUEOp5bBYqoqQbuo4UDuJlbBgrdLQYut4D7GhwBBI/YrwakDpD+xiMhACUsgwBvTLMG1c45B
lpc_rms=-21.59
sample=Oboe_sustain_MF_F5.opus
tune=+1
</region>

<region>
hivel=127
key=G#4
loop_end=262357
loop_mode=loop_continuous
loop_start=58219
loop_xfade=24736
lovel=1
lpc=SEQGQvutzsJWJgdDs9+qwgVOG0EYP+xBcLqKweoUzsBvIPVAFtabQG3dKMG+EOBAbsywQNdxhMEeg4ZBwSUYwRKwzkAAnNPAFwifPxI3j0BnCK6/ruo0wNuZCkDy7BG/
lpc_rms=-17.87
sample=Oboe_sustain_MF_G#4.opus
tune=-4
</region>

<region>
hivel=127
key=G#5
loop_end=269098
loop_mode=loop_continuous
loop_start=59715
loop_xfade=25371
lovel=1
lpc=ZfeHQm1HAMM0OAJDXd9jwkWW778ObvlB0DxywQqm/kA9fxJByYF8wAtVPECs6+tAhqVBwGPxhUG5JX/BtfKTQUzuBEHmT73B93gCQqU4W8E5ZNK+AB8EQppoFsLpxOpB
lpc_rms=-15.87
sample=Oboe_sustain_MF_G#5.opus
tune=+1
</region>

<region>
hivel=127
key=G4
loop_end=269782
loop_mode=loop_continuous
loop_start=59867
loop_xfade=25436
lovel=1
lpc=7mW3QeMGksLzS8ZCcD2HwgbDG0GSPstBvF+oweWhC0B2XfFACC4HwckUtkCCMq2+d+LMwEy6DUHCIBbApJHPwCqUCUERZg/AwN7dwKZuCUG4RLO//EKOwJ5ZXkAHeiu/
lpc_rms=-23.60
sample=Oboe_sustain_MF_G4.opus
tune=-1
</region>

<region>
hivel=127
key=G5
loop_end=272081
loop_mode=loop_continuous
loop_start=60377
loop_xfade=25652
lovel=1
lpc=VfXzQf6Cf8Jswn1CjrzGwRq1NMAwpOVAPkAYwIr2BUERGvLAiYEDQegnqcAs9Q/AAk50QQMnWcGCgARBeH/KwPpSU0GLBtXAikp1P6hOPMDH5HRAOx5SQXMYpcFjPWFB
lpc_rms=-20.17
sample=Oboe_sustain_MF_G5.opus
tune=+1
</region>
</group>

<group>
amp_veltrack=0
ampeg_attack=2
ampeg_release=0.35
group_label=FF
lpc_hiCC1=43
lpc_hicc1=127
lpc_locc1=85
volume=-3

<region>
hivel=127
key=A#4
loop_end=271286
loop_mode=loop_continuous
loop_start=60201
loop_xfade=25577
lovel=1
lpc=fhZeQmXuGsMO7zRDue/HwoB+kcBdsUZCjzzHwVzTn8CcYkpB9J3XwBH6Yb9HDZnAIE57Qa20XsErZgFBDmnwvzCt371pC7VAZQDgwSB5F0LLvJzBuMWgwMC9mkFU2znB
lpc_rms=-14.39
sample=Oboe_sustain_FF_A#4.opus
tune=-1
</region>

<region>
hivel=127
key=A#5
loop_end=273520
loop_mode=loop_continuous
loop_start=60697
loop_xfade=25788
lovel=1
lpc=k0WdQidzAsP6Bs5CZMtHwb6ZTcKuDoFC3r0IwmhTiEEdb84/NUDKP3Ef/MCc18BBqs2UwQL6tsCHRx1Cz1b8wfDktUD4KQtC2gc1wksFK0Ix5JXBgsZnwRMJQ0IiqAfC
lpc_rms=-15.54
sample=Oboe_sustain_FF_A#5.opus
tune=-2
</region>

<region>
hivel=127
key=A4
loop_end=269139
loop_mode=loop_continuous
loop_start=59725
loop_xfade=25375
lovel=1
lpc=dx7pQcl6r8JmfNJCsm9hwoaOkcAgjhRCRjAOwou7i0Fjy/O/QEmXwE5VVUAhYIDATff6QL/Lm8D3iky/UoBbQBN8mcAAA9FAXG/NwCaArr6uoE5BuY2OwepnHUGVudG/
lpc_rms=-20.07
sample=Oboe_sustain_FF_A4.opus
tune=+1
</region>

<region>
hivel=127
key=A5
loop_end=274002
loop_mode=loop_continuous
loop_start=60804
loop_xfade=25833
lovel=1
lpc=mhMeQt/cgcIsuH1CmG+TwXC1YcEIKwtCMNWzwV1omUG0VwjBl+LgQCazE0G1EafAEesOQD1aPUEDCyPAi6XOwHsqwEEp3lrBPyb1QC56lD+TMT1BkfUKwbcA50BHDtRA
lpc_rms=-17.23
sample=Oboe_sustain_FF_A5.opus
tune=-2
</region>

<region>
hivel=127
key=B4
loop_end=265412
loop_mode=loop_continuous
loop_start=58897
loop_xfade=25024
lovel=1
lpc=mbyjQWP/d8JcIqNCtS5jwlpyKEFAjspBfNn9wdHVi0FY3zzA8nhewCH8v0BQo8XAkrz+P2SRXEBrYW/AL6tuP06/KEDNQInAdNDGv1rAEUGB3QbBVfhHQGP+Ub20ba++
lpc_rms=-21.18
sample=Oboe_sustain_FF_B4.opus
tune=-2
</region>

<region>
hivel=127
key=B5
loop_end=256291
loop_mode=loop_continuous
loop_start=56873
loop_xfade=24164
lovel=1
lpc=nstSQnDQq8LH4aBCeQfRwb1AtMGqS1RC1XgUwjFjfUEUd8JAZw+LwIO8fUD3kbNAQsZ7P7WGAEAMlok+DCC2QA7cVUDbA8HAnHaAQZDStr/KqJfBwzcvQiifAsLpZpJA
lpc_rms=-19.30
sample=Oboe_sustain_FF_B5.opus
tune=-2
</region>

<region>
hivel=127
key=C#4
loop_end=266477
loop_mode=loop_continuous
loop_start=59134
loop_xfade=25124
lovel=1
lpc=nBXrQQ3AssLJGepCM36qwpQ/IEJf8JTB8LGNQTO2YsG9AwRBFKC/wFcnSUBktTPAnFCTQN144r80tr8/0dfowHm3R0FHgbnA96bKwMBZ9kAxlfS89CiRwNm8ckC9pVS/
lpc_rms=-18.35
sample=Oboe_sustain_FF_C#4.opus
tune=-1
</region>

<region>
hivel=127
key=C#5
loop_end=265474
loop_mode=loop_continuous
loop_start=58911
loop_xfade=25029
lovel=1
lpc=ACDDQU+MjMKaD65CUSxZwtdGG0GgPzlBvMwrwRdmKkEiEjDBpBTbQBU2RMAw7Y5A3u/owAn/SUBBzftAPpFdwWKDJEEj4da/YiVhwOSoUUDZKwTA0NLvP5iTtr/kw4U+
lpc_rms=-20.75
sample=Oboe_sustain_FF_C#5.opus
</region>

<region>
hivel=127
key=C#6
loop_end=270942
loop_mode=loop_continuous
loop_start=60125
loop_xfade=25545
lovel=1
lpc=e3NWQkCIfML1yDRCPkCawUgQZUFnA59A5fCGP59MOkEnqV/AcfRXQUDjYL5y9spAuDWcQLLC20Af350/ClwUQTx/A0AZntZAO4QnQERLDEElagVB1+fmwbb6RkHF9ilB
lpc_rms=-21.20
sample=Oboe_sustain_FF_C#6.opus
</region>

<region>
hivel=127
key=C4
loop_end=269765
loop_mode=loop_continuous
loop_start=59863
loop_xfade=25434
lovel=1
lpc=OfA4Qg8CI8PTAIBD8rlkwyB980KyphDCDBpzQZ8k+MH4djVCCSwXwlqSMkH9JkRBBNiRwfWErEG9nvnBuFDQQSj7hr/We0rBzqcTQIOIR0EZsHnBu9gQQXckJMCogxc/
lpc_rms=-15.21
sample=Oboe_sustain_FF_C4.opus
</region>

<region>
hivel=127
key=C5
loop_end=258330
loop_mode=loop_continuous
loop_start=57326
loop_xfade=24356
lovel=1
lpc=l8aqQfMqaMIswpJC60lYwjuEr0EGbctAZSeewZZHtEGzSmrBdbepQHhJCz9uMILAGhcuQW63SME6RAxBK6JhwMOCoD/GqEhAKUrGwB8KnUCqwo8/5AaQwCL/ZUAg5US/
lpc_rms=-19.56
sample=Oboe_sustain_FF_C5.opus
tune=-3
</region>

<region>
hivel=127
key=C6
loop_end=259599
loop_mode=loop_continuous
loop_start=57608
loop_xfade=24475
lovel=1
lpc=ldo4QifFdMLnvVRCSOWrwXtmHEE5N75AOIJ1QPir173+4x1BuS8+v9PFtUACxmlAGE9+QIWVrkAo9Dk+p5kRQY3G7r9hvw1BlI7ZPzAIe0Abb3Q/c1OiQfs3EsJjIJ1B
lpc_rms=-19.66
sample=Oboe_sustain_FF_C6.opus
tune=+2
</region>

<region>
hivel=127
key=D#4
loop_end=270457
loop_mode=loop_continuous
loop_start=60017
loop_xfade=25499
lovel=1
lpc=E7QgQrF+/MJWHSdDNivpwqy5EUIPWItBQ7oMwsbkw0F8eo1AB0TVwQpi+UFDSODBSBK9QYO6ncEVFnZBL+UtwWlm3EDvEao/gNTZwPZy0z8GJAdB9kkawfef7T9jz8w/
lpc_rms=-17.60
sample=Oboe_sustain_FF_D#4.opus
tune=-1
</region>

<region>
hivel=127
key=D#5
loop_end=265418
loop_mode=loop_continuous
loop_start=58899
loop_xfade=25024
lovel=1
lpc=0/xfQkX2HcMuZkRDv9P9wrfE2UEaq8RB/ynAwZRoQEH4zC/BPBg2QaWXnEDzsLfBNU0CQr6nCcKYmwVCyr6TwXKdJsGpWwNCN3Phwd3P1z+SzJJBTM9IwXAP778BEL5A
lpc_rms=-14.35
sample=Oboe_sustain_FF_D#5.opus
</region>

<region>
hivel=127
key=D#6
loop_end=256939
loop_mode=loop_continuous
loop_start=57017
loop_xfade=24225
lovel=1
lpc=YmETQ4ItUsPDbShDBah6wjqTVkEQAqxBdqYNQQSpnUEFwpBBFlcvQXxLt0GSHABB2RvOQaPK60CJoJ1BGffLQYCtFcA29+5B173SQRnU9sIakRdDClckwjC/j8BCBARC
lpc_rms=-8.48
sample=Oboe_sustain_FF_D#6.opus
</region>

<region>
hivel=127
key=D4
loop_end=272281
loop_mode=loop_continuous
loop_start=60422
loop_xfade=25671
lovel=1
lpc=+zfKQSg2n8IRkNRC1gOcwkzcEUKjlErBwIjSPxgLwD8mOIJANxbcwIfonL+QNNNA2QXCP21EEMGPkqhAotiBvpvfQ74BHqRAR4lrwZ7VikF7snvBmXeGQbS9VMF7nZJA
lpc_rms=-16.56
sample=Oboe_sustain_FF_D4.opus
</region>

<region>
hivel=127
key=D5
loop_end=269533
loop_mode=loop_continuous
loop_start=59812
loop_xfade=25412
lovel=1
lpc=S7qgQV5lgsKHssFCDXOrwtehQEL8f2vBH48NQLAf1sCxHFNBWt/8wKN4scDBWxVBLQGjPR8Y2MB8NY9A2XZ6P7t/pcAqLdlAPeWbwIC1dUDT9eTAbtA3QVX9GsFm8mVA
lpc_rms=-20.30
sample=Oboe_sustain_FF_D5.opus
</region>

<region>
hivel=127
key=D6
loop_end=269053
loop_mode=loop_continuous
loop_start=59705
loop_xfade=25367
lovel=1
lpc=FVaFQtGXvsKpgp5C1tkCwvQkhUFAf8VAd/rbv35PgkGCdjjBQea8QW0FFMF0UzJBhiOpQGl1Ez5gxXtBM6UpwdizlUGUw/K9FCnZvv2Zw0GoLIPC4uB6QjX7pcGVmlZA
lpc_rms=-17.21
sample=Oboe_sustain_FF_D6.opus
tune=+1
</region>

<region>
hivel=127
key=E4
loop_end=272155
loop_mode=loop_continuous
loop_start=60394
loop_xfade=25659
lovel=1
lpc=UjRQQoNOLMNUEHRDY180w5qpYEIm14pBRsDFwWx100Hr2ivCPjlSQrtOLMIrW2xBtMuOQaaLBMKe/dxBqJhvwcziZEG3R6XBYxBoQQ5rp0BuwtLBZ98UQkgY28GEqw1B
lpc_rms=-12.41
sample=Oboe_sustain_FF_E4.opus
tune=-1
</region>

<region>
hivel=127
key=E5
loop_end=255656
loop_mode=loop_continuous
loop_start=56733
loop_xfade=24104
lovel=1
lpc=D4rHQvQKi8M+0ahD4/hYw1ZsTUJyBGJCNtCgwgTNkkLS90DCxzbUPvph+kFJLQjCIGUBQv03lMBY3bLBtdfLQdxrocGZbatAJ3DTQdKwHcK0wkpBZR5MQmm8ocI+TiRC
lpc_rms=-8.12
sample=Oboe_sustain_FF_E5.opus
tune=-1
</region>

<region>
hikey=G#6
hivel=127
lokey=E6
loop_end=273749
loop_mode=loop_continuous
loop_start=60747
loop_xfade=25810
lovel=1
lpc=0T0RQ5S5R8OE3iBDGbZNwp/oMkED+clBQkpWQMirCEI1ATtB87qLQQfQ0kG5GkZBZg69QT5pf0FExp5B0nasQW07ZkHP6w1CwTD7wsoVKUNYQYTCp+FIQb7L8kEtp5o/
lpc_rms=-10.18
pitch_keycenter=E6
sample=Oboe_sustain_FF_E6.opus
</region>

<region>
hivel=127
key=F#4
loop_end=267654
loop_mode=loop_continuous
loop_start=59395
loop_xfade=25235
lovel=1
lpc=yAO/QdgsjMKwC6xCx6ZdwoyonEFyAAnAMmd8wFlj3kA/f5HAs3+jQKWuNMHxUQFBvtoMQHaUVMCDnUE+L/hTwFgjE0F3J9nAJtkjwLzeOEDqvbBANu4FwfTLn0CvMM6/
lpc_rms=-21.34
sample=Oboe_sustain_FF_F#4.opus
</region>

<region>
hivel=127
key=F#5
loop_end=270414
loop_mode=loop_continuous
loop_start=60007
loop_xfade=25495
lovel=1
lpc=EMqqQZ0SXcJuFYxCN8xSwq/c3UGgbWzB9e17QWRNTMEgEYxAHCyoP+Tb6j/DO5DAN1SrQAXHQsBPku0/+ZvQP+Re4MBazk9BKplNwdOzKEGvQ+nAh234QNrKAsH0BLZA
lpc_rms=-18.95
sample=Oboe_sustain_FF_F#5.opus
</region>

<region>
hivel=127
key=F4
loop_end=266684
loop_mode=loop_continuous
loop_start=59180
loop_xfade=25143
lovel=1
lpc=3lEiQo0e8sL8XRxDLkvmwkyUTkIEd6C+EZYGwmXwTEK3rTjCQFgDQux8eMHCZxzBQd23Qa/AhcFLJfFAjCGRwIt/HkHRcdvAfwowwLEfAT9y525B+xLHwYXihkG3pmLA
lpc_rms=-15.39
sample=Oboe_sustain_FF_F4.opus
</region>

<region>
hivel=127
key=F5
loop_end=259485
loop_mode=loop_continuous
loop_start=57582
loop_xfade=24465
lovel=1
lpc=D54HQ55dmsOig5xD4Qocw/xt9sA6bKpC0L9zwv0+PEEgRbFBJ1CTQTHFI8KTbnPBlZx3QuX6OsJ/zI9B8XdgQUjTlMHS+M9BIL1CwUBDxMDmhYhBaNi6wZqWEkEah4FB
lpc_rms=-10.33
sample=Oboe_sustain_FF_F5.opus
tune=+2
</region>

<region>
hivel=127
key=G#4
loop_end=266179
loop_mode=loop_continuous
loop_start=59068
loop_xfade=25096
lovel=1
lpc=sh3TQf8OosJTzdZCA4uUwgVJq0Hxvh5Bn+kIwR+ANr9QD0LAGglIQctnkcET/oFBpMeWwCUofb8TVuS/XwHcPo06jEBWC0HAEi2mwGJYDEEnuak/CDNAwRoFHUFh3ifA
lpc_rms=-18.52
sample=Oboe_sustain_FF_G#4.opus
tune=-1
</region>

<region>
hivel=127
key=G#5
loop_end=268690
loop_mode=loop_continuous
loop_start=59625
loop_xfade=25333
lovel=1
lpc=QsZXQu1Au8JHOaZCKN/JwdahNMFE8dNBj7+UwQulrUFAqYDA85BkQFRohMH6nAFCAkCRwd4IIUHcoyhAGzEPwEI/kUE+g5DB9J5QQV59GsFs8cZBIYAQwUbnqcBe0WZB
lpc_rms=-16.37
sample=Oboe_sustain_FF_G#5.opus
tune=-2
</region>

<region>
hivel=127
key=G4
loop_end=258464
loop_mode=loop_continuous
loop_start=57356
loop_xfade=24368
lovel=1
lpc=nPyYQQExa8KXOqNCjfeBws5M6UHtU7jAOflDQIn8g8AC2Mm93nQSQTEli8GZUYBB+pTlwPVFCUDftTTARSHkP7h1p0BSSyrBKxLrQM7Xwb9pNz4+L/r4v8mgG0Az1me/
lpc_rms=-17.02
sample=Oboe_sustain_FF_G4.opus
tune=-1
</region>

<region>
hivel=127
key=G5
loop_end=283719
loop_mode=loop_continuous
loop_start=62960
loop_xfade=26750
lovel=1
lpc=nrpVQS+748GsuftBwmaYwTTos0Abw6U/7ht9PsIqMkBtm/PAh9MLQaXcU8AYDKY+ZpiyP61ucL7DBxRAMFyhwJ2wwUDqkcq/wIPfvnnuJEAjeFjACMiNQDmoX8DAQlhA
lpc_rms=-22.95
sample=Oboe_sustain_FF_G5.opus
</region>
</group>